<svg width="103" height="46" viewBox="0 0 103 46" fill="none" xmlns="http://www.w3.org/2000/svg">
<path fill-rule="evenodd" clip-rule="evenodd" d="M0.0398709 45.9105C0.283436 46.1707 -0.0703997 45.7676 0.013212 45.9056C0.757236 45.8548 1.77269 45.5631 2.45249 45.2665C2.72393 45.1479 3.41706 44.6854 3.65335 44.6297C4.03021 44.539 4.72698 44.7326 5.01659 44.6273C6.15807 44.2133 7.30804 43.1747 8.04358 42.5561C8.94877 41.7947 10.4041 40.8832 11.1481 39.8155C11.6389 39.1097 11.7298 38.2624 12.3453 37.6765C13.0942 36.9635 14.6441 36.4926 15.6329 36.1089C18.1121 35.1453 19.6499 33.39 21.9013 31.9519C21.7583 33.1092 20.8083 33.8645 21.3924 35.1005C21.8492 36.0701 22.4999 36.1222 23.3554 36.4212C23.7371 36.5543 24.3673 36.403 24.6944 36.5761C25.0664 36.771 25.0083 37.6123 25.4906 37.7636C26.3037 38.0203 27.9953 36.8085 28.7708 36.5967C29.9911 36.2626 30.2758 36.7395 31.3919 36.9308C32.8157 37.1765 33.3089 36.4829 34.3716 35.7421C36.3674 34.3487 39.3992 34.3669 41.3635 32.8356C41.4495 33.1709 41.773 33.4336 41.8203 33.8113C43.3168 33.7943 44.7419 31.3333 45.1696 30.0296C45.4568 29.1544 45.4192 28.2864 45.5901 27.4391C45.6458 27.1667 45.252 27.1715 45.4677 26.668C45.6362 26.2794 46.6528 25.6777 46.98 25.2722C48.2293 23.7227 48.7734 22.0026 49.5865 20.2364C50.1112 19.0961 51.1255 18.2645 51.661 17.1629C52.0282 16.4063 52.0149 15.6691 52.2536 14.8944C53.2691 16.6266 54.3718 18.7148 56.822 17.6205C59.2843 16.5213 59.5593 12.8486 61.4012 11.0691C62.7075 12.9721 66.2713 7.93143 66.9475 7.05017C67.7363 6.02122 68.3167 5.21017 68.5094 4.0408C68.5627 3.71033 68.2707 3.08812 68.3907 2.63901C68.5567 2.01196 69.3443 1.38248 69.6909 0.820801C70.8324 1.52533 71.3631 2.68743 72.776 3.33022C73.2014 3.52391 75.7424 4.98017 75.9739 4.94506C77.073 4.78043 76.5773 1.33406 78.7622 2.76127C79.654 3.34233 79.8576 5.02133 78.7319 5.37843C79.3402 6.17375 80.1387 5.76459 80.9906 5.89654C82.4883 6.12775 83.9461 6.80443 85.113 7.78133C86.5223 8.95917 85.8934 10.7992 84.7386 11.8971C84.1678 12.4382 83.4432 12.3741 82.9803 13.1415C82.6871 13.6294 82.4774 14.829 82.3732 15.4064C81.817 18.4909 83.339 19.4411 85.788 17.3747C85.9855 18.6361 86.5187 20.165 87.9098 20.6214C89.4996 21.1419 90.8326 20.6032 92.1764 21.6067C93.3203 22.459 94.6011 23.5557 95.7123 24.5447C96.4818 25.2286 96.5521 24.6052 96.649 25.9102C96.7048 26.6716 96.4127 27.7223 96.2176 28.4692C95.2288 28.4039 94.5999 27.2454 93.9335 26.5663C93.0004 25.6148 92.0928 24.9623 90.8507 24.4672C89.8183 26.5021 90.5248 26.3084 92.0225 27.5383C92.8005 28.1775 93.3276 29.0152 94.0995 29.7754C94.8168 30.4835 96.3267 31.1384 96.7581 31.9652C97.2658 32.9397 96.3691 34.902 95.5766 33.2399C94.7756 33.85 94.3139 34.8959 95.2506 35.4782C94.9065 35.6186 94.6472 36.0193 94.2655 36.1331C95.1598 36.7081 95.104 37.5445 95.6857 38.3483C96.0419 38.8434 97.7081 39.5007 95.7172 40.008C94.1273 40.4135 92.9652 35.1719 91.3512 37.3133C90.5066 38.4331 94.7235 41.0914 95.7438 41.3335C96.6757 41.5526 97.0683 41.0684 97.9456 41.2076C98.2595 41.2572 98.2219 42.0114 98.7466 42.0816C99.1101 42.1288 99.7996 41.6143 100.101 41.457C100.91 42.3007 101.506 43.0343 102.004 44.1322C102.433 45.0764 102.404 46.2385 102.147 45.7943L0.0398709 45.9105Z" fill="#4E5963"/>
</svg>
