<svg width="24" height="34" viewBox="0 0 24 34" fill="none" xmlns="http://www.w3.org/2000/svg">
<path d="M23.2889 18.1044C23.2817 17.5807 23.251 17.0578 23.1969 16.538C23.0636 15.0247 22.7212 13.5485 22.1839 12.17L21.9747 11.688V11.6077H21.8575H21.4891C20.4658 11.7196 19.4571 11.9758 18.4838 12.3708L18.1825 12.5014V12.2001C17.9908 10.7173 17.6594 9.2654 17.1946 7.87229C16.9298 7.09703 16.6193 6.34536 16.2654 5.62303C15.5315 4.1981 14.6481 2.8921 13.6368 1.73703C13.0906 1.16255 12.5022 0.648361 11.8789 0.200704L11.7366 0.0902489L11.6696 0.0400391L11.6026 0.0902489L11.4687 0.200704C10.0133 1.40528 8.76316 2.93213 7.78531 4.69922C7.02676 6.02072 6.39756 7.44256 5.91013 8.93667C5.55715 10.0062 5.30991 11.1217 5.17346 12.2604C5.17346 12.3708 5.17346 12.4712 5.17346 12.5817C5.17346 12.6921 4.87209 12.4311 4.33633 12.2503L4.14379 12.1901C3.24536 11.9085 2.33018 11.7105 1.40638 11.5976L1.08827 12.5315C0.996184 12.7825 0.9041 13.0335 0.820387 13.2946C0.220423 15.2169 -0.025189 17.2724 0.100455 19.3194C0.169383 20.5637 0.360454 21.7939 0.669704 22.9845C1.49191 26.1736 3.08575 28.9977 5.2488 31.0979C5.95633 31.8155 6.73863 32.4197 7.57603 32.8953C8.88747 33.6273 10.3152 34.0109 11.7617 34.02H11.9626C13.5259 33.8962 15.0495 33.376 16.4329 32.4937C16.751 32.2828 17.0691 32.0318 17.0774 32.0318C17.5064 31.6982 17.9174 31.3327 18.308 30.9373C19.4754 29.7668 20.4763 28.3763 21.2715 26.8203C22.0816 25.2704 22.6807 23.5756 23.0462 21.7996C23.251 20.5841 23.3325 19.3434 23.2889 18.1044ZM11.7198 27.3123C11.7115 28.8022 11.5023 30.2806 11.1003 31.6904C8.72329 31.1804 6.54414 29.7732 4.88047 27.6738C3.81427 26.2304 3.00271 24.5431 2.49465 22.7134C2.03435 21.1376 1.82699 19.4715 1.88354 17.8032C1.94635 16.5495 2.15486 15.3125 2.50301 14.128V14.0678H2.61184C3.35197 14.2262 4.07792 14.4683 4.78001 14.7908L4.98929 14.8912C5.89396 15.4016 6.73841 16.0533 7.50068 16.8292C8.70059 18.0153 9.6765 19.494 10.3637 21.167C10.5227 21.5687 10.6567 21.9904 10.7404 22.2415C11.1095 23.2237 11.3901 24.2504 11.5775 25.3041C11.6778 25.9666 11.7255 26.639 11.7198 27.3123ZM11.6612 19.2793C11.2333 18.4161 10.7431 17.5996 10.1962 16.8392C9.87585 16.3821 9.53196 15.9495 9.16657 15.5439C8.81211 15.1294 8.43755 14.7405 8.04482 14.3791C7.69322 14.0778 7.32488 13.7967 6.95654 13.5356C7.01998 12.8325 7.12064 12.1348 7.25791 11.447C7.61682 9.61285 8.23703 7.86679 9.09123 6.28576C9.60858 5.35554 10.2001 4.48789 10.8576 3.69509C11.1338 3.36372 11.4268 3.03236 11.6947 2.69095C13.031 3.95403 14.1365 5.53308 14.9428 7.33007C15.424 8.44 15.7976 9.61244 16.0561 10.8245C16.2466 11.7007 16.3782 12.5939 16.4496 13.4955C15.4059 14.2173 14.4509 15.1095 13.6117 16.1464C12.8587 17.0925 12.2037 18.1445 11.6612 19.2793ZM19.7646 25.3744C18.2708 28.3615 15.8706 30.5387 13.0676 31.4494C13.2792 30.5804 13.4222 29.6895 13.4945 28.7884C13.565 27.8699 13.565 26.9456 13.4945 26.0271C13.3829 24.5549 13.1012 23.1085 12.6574 21.7294C13.0363 20.7232 13.5111 19.7729 14.0721 18.8977C14.6213 18.0349 15.2535 17.2529 15.9557 16.5681C16.687 15.8687 17.492 15.288 18.3499 14.841C19.1349 14.436 19.9588 14.1493 20.8027 13.9875C20.9488 14.5387 21.0717 15.0984 21.171 15.6644C21.3468 16.9597 21.4305 17.9638 21.4389 18.0643C21.4831 20.6441 20.9015 23.1837 19.7646 25.3744Z" fill="#F49879"/>
</svg>
