<svg width="795" height="397" viewBox="0 0 795 397" fill="none" xmlns="http://www.w3.org/2000/svg">
<g clip-path="url(#clip0)">
<path d="M771 1H24C10.7452 1 0 11.7452 0 25V373C0 386.255 10.7452 397 24 397H771C784.255 397 795 386.255 795 373V25C795 11.7452 784.255 1 771 1Z" fill="#2F2F2F"/>
<path d="M280.167 35.9382L347.503 -36H328.511L276.491 31.5395L219.738 -36H202.027H193.227H190.943L260.061 46.1276L209.156 102.03L190.943 121.239H209.88L264.851 51.8069L323.331 121.239H325.949H346.445H352.126L280.167 35.9382Z" fill="#EB9038"/>
<path d="M10.1487 35.9382L77.4288 -36H58.4366L6.41708 31.5395L-50.3366 -36H-68.0477H-76.8476H-79.1311L-10.0131 46.1276L-60.9187 102.03L-79.1311 121.239H-60.1947L-5.22326 51.8069L53.2569 121.239H55.9303H76.3705H82.0515L10.1487 35.9382Z" fill="#F3C3CF"/>
<path d="M550.231 35.9382L617.511 -36H598.575L546.555 31.5395L489.746 -36H472.035H463.291H460.952L530.125 46.1276L479.22 102.03L460.952 121.239H479.944L534.915 51.8069L593.395 121.239H596.013H616.453H622.134L550.231 35.9382Z" fill="#8DC4F3"/>
<path d="M820.293 35.9382L887.573 -36H868.581L816.561 31.5395L759.807 -36H742.096H733.296H731.013L800.131 46.1276L749.225 102.03L731.013 121.239H749.949L804.921 51.8069L863.401 121.239H866.074H886.515H892.196L820.293 35.9382Z" fill="#E95B44"/>
<path d="M412.606 193.122L479.941 121.24H460.949L408.93 188.779L352.176 121.24H334.465H325.665H323.382L392.5 203.367L341.594 259.214L323.382 278.479H342.318L397.289 209.047L455.77 278.479H458.387H478.883H484.564L412.606 193.122Z" fill="#F3C3CF"/>
<path d="M142.594 193.122L209.874 121.24H190.937L138.862 188.779L82.1085 121.24H64.3974H55.6532H53.314L122.488 203.367L71.5264 259.214L53.314 278.479H72.3061L127.278 209.047L185.702 278.479H188.375H208.816H214.497L142.594 193.122Z" fill="#B7B7B7"/>
<path d="M4.97103 350.362L72.2511 278.479H53.3147L1.23946 345.963L-55.5142 278.479H-73.2253H-81.9695H-84.3087L-15.135 360.551L-66.0963 416.454L-84.3087 435.663H-65.3166L-10.3452 366.231L48.0793 435.663H50.7527H71.1929H76.8739L4.97103 350.362Z" fill="#8DC4F3"/>
<path d="M274.98 350.362L342.26 278.479H323.323L271.248 345.963L214.494 278.479H196.783H187.983H185.7L254.818 360.551L203.912 416.454L185.7 435.663H204.636L259.608 366.231L318.088 435.663H320.761H341.202H346.883L274.98 350.362Z" fill="#E95B44"/>
<path d="M544.994 350.362L612.274 278.479H593.282L541.263 345.963L484.509 278.479H466.798H457.998H455.714L524.832 360.551L473.927 416.454L455.714 435.663H474.651L529.622 366.231L588.103 435.663H590.776H611.216H616.897L544.994 350.362Z" fill="#B7B7B7"/>
<path d="M814.947 350.362L882.282 278.479H863.29L811.271 345.963L754.517 278.479H736.806H728.006H725.723L794.841 360.551L743.935 416.454L725.723 435.663H744.659L799.63 366.231L858.111 435.663H860.784H881.224H886.905L814.947 350.362Z" fill="#F3C3CF"/>
<path d="M682.67 193.122L749.95 121.24H730.958L678.938 188.779L622.184 121.24H604.473H595.673H593.39L662.508 203.367L611.602 259.214L593.39 278.479H612.326L667.298 209.047L725.778 278.479H728.451H748.892H754.572L682.67 193.122Z" fill="#EB9038"/>
<path d="M0 235C19.8823 235 36 218.882 36 199C36 179.118 19.8823 163 0 163C-19.8823 163 -36 179.118 -36 199C-36 218.882 -19.8823 235 0 235Z" fill="#111111"/>
</g>
<defs>
<clipPath id="clip0">
<rect width="795" height="396" fill="white" transform="translate(0 1)"/>
</clipPath>
</defs>
</svg>
