<svg width="53" height="70" viewBox="0 0 53 70" fill="none" xmlns="http://www.w3.org/2000/svg">
<path d="M51.0018 46.5C50.8351 46.167 50.6684 46 50.5018 45.833C50.3351 45.667 50.3351 45.5 50.1685 45.5L34.8351 30.167V1.83298C34.8351 0.832977 34.1685 0.166992 33.1685 0.166992H13.3351C12.3351 0.166992 11.6685 0.832977 11.6685 1.83298V5.99998H2.3351C1.3351 5.99998 0.668503 6.66699 0.668503 7.66699V15.167V35.5V42.167C0.668503 44.333 1.5018 46.5 3.1685 48L6.6685 51.5L22.8351 67.667C23.0018 67.833 23.1685 67.833 23.1685 68C23.3351 68.333 23.5018 68.5 23.8351 68.5C25.3351 69.5 27.0018 70 28.6685 70C30.8351 70 33.0018 69.167 34.5018 67.5L38.0018 64C38.5018 64.167 39.1684 64.167 39.6684 64.167C41.8351 64.167 43.8351 63.333 45.5018 61.667L50.1685 57C51.6685 55.5 52.6685 53.333 52.6685 51.167C52.6685 49.5 52.0018 48 51.0018 46.5ZM15.0018 3.33298H31.5018V7.49998H23.8351C23.8351 6.49998 23.1684 5.83298 22.1684 5.83298H15.0018V3.33298ZM4.0018 9.16699H20.5018V13.333H4.0018V9.16699ZM9.5018 41.333L7.1684 47.333L5.5018 45.667C4.5018 44.667 4.0018 43.5 4.0018 42.167V37.667L8.5018 39.167C9.0018 39.333 9.3351 39.667 9.5018 40C9.6685 40.333 9.6685 40.833 9.5018 41.333ZM23.3351 63.5L9.8351 50L12.6685 42.667C13.1685 41.333 13.1685 40 12.5018 38.833C12.0018 37.667 10.8351 36.667 9.6684 36.167L4.1685 34.333V16.667H20.6685V36.5C20.6685 37 20.8351 37.333 21.1685 37.667L35.1685 51.667C29.1685 53.167 24.6685 57.667 23.3351 63.5ZM36.8351 60.667L36.5018 61L32.3351 65.167C30.6685 66.833 28.1684 67 26.3351 66C26.8351 59.833 31.6685 55 37.6685 54.667C38.6685 56.667 38.5018 59.167 36.8351 60.667ZM38.1685 50.167L23.8351 35.833V10.833H31.5018V30.667C31.5018 31.167 31.6685 31.5 32.0018 31.833L45.8351 45.667C42.8351 46.5 40.1685 48 38.1685 50.167ZM47.8351 54.833L43.1685 59.5C42.5018 60.167 41.5018 60.667 40.6685 61C42.0018 58.5 41.8351 55.333 40.3351 53C42.3351 50.5 45.1685 49.333 48.5018 49C49.0018 49.667 49.1685 50.667 49.1685 51.5C49.3351 52.667 48.8351 54 47.8351 54.833Z" fill="url(#paint0_radial)"/>
<defs>
<radialGradient id="paint0_radial" cx="0" cy="0" r="1" gradientUnits="userSpaceOnUse" gradientTransform="translate(26.6685 0.166992) rotate(90) scale(69.8333 52)">
<stop stop-color="#EB9038"/>
<stop offset="0.515625" stop-color="#F3C3CF"/>
<stop offset="1" stop-color="#8DC4F3"/>
</radialGradient>
</defs>
</svg>
