<svg width="68" height="52" viewBox="0 0 68 52" fill="none" xmlns="http://www.w3.org/2000/svg">
<path d="M67 37.6667L57 27.8334C57.167 24.6667 57.5 13 51.167 6C47.833 2.3334 43.333 0.5 37.833 0.5H30C24.333 0.5 20 2.3334 16.667 6C10.333 13.1667 10.833 24.6667 11 27.8334L1.16701 37.8334C1.00001 38 0.832993 38.1667 0.832993 38.3334C0.832993 38.5 0.667007 38.8334 0.667007 39C0.667007 47 18 51.3334 34.167 51.3334C50.333 51.3334 67.5 46.8334 67.5 38.8334C67.5 38.5 67.333 38 67 37.6667ZM19.167 8.3334C21.833 5.3334 25.333 4 30 3.8334H37.833C42.5 3.8334 46 5.3334 48.667 8.1667C55 15.1667 53.667 28.1667 53.667 28.1667C53.667 28.1667 53.667 28.1667 53.667 28.3334C53.667 28.3334 53.667 28.3334 53.667 28.5C53.667 30.8334 46 34.3334 34.167 34.3334C22.167 34.3334 14.5 31 14.5 28.6667C14.5 28.6667 14.5 28.6667 14.5 28.5C14.5 28.5 14.5 28.5 14.5 28.3334C14.333 28.3334 13 15.3334 19.167 8.3334ZM34.167 48.1667C16.5 48.3334 5.16701 43.5 4.16701 39.8334L12.333 31.6667C15.333 35.6667 24.667 37.6667 34 37.6667C43.333 37.6667 52.667 35.5 55.833 31.3334L64 39.5C63 43.1667 51.833 48 34.167 48.1667Z" fill="url(#paint0_radial)"/>
<defs>
<radialGradient id="paint0_radial" cx="0" cy="0" r="1" gradientUnits="userSpaceOnUse" gradientTransform="translate(34.083 0.5) rotate(90) scale(50.8333 66.8333)">
<stop stop-color="#EB9038"/>
<stop offset="0.515625" stop-color="#F3C3CF"/>
<stop offset="1" stop-color="#8DC4F3"/>
</radialGradient>
</defs>
</svg>
