<svg width="48" height="69" viewBox="0 0 48 69" fill="none" xmlns="http://www.w3.org/2000/svg">
<path d="M47.3333 1.83341C47.3333 1.66675 47.3333 1.66675 47.3333 1.50008C47.3333 1.33341 47.3333 1.33341 47.3333 1.16675C47.3333 1.00008 47.1666 1.00008 47.1666 0.833408C47.1666 0.666748 47 0.666748 47 0.500078C47 0.500078 46.8333 0.333408 46.6666 0.333408C46.5 0.333408 46.5 0.166748 46.3333 0.166748C46.1666 0.166748 46.1666 0.166748 46 0.166748C45.8333 0.166748 45.8333 0.166748 45.6666 0.166748H2.3333C2.1666 0.166748 2.1666 0.166748 2 0.166748C1.8333 0.166748 1.8333 0.166748 1.6666 0.166748C1.5 0.166748 1.5 0.333408 1.3333 0.333408C1.1666 0.333408 1.1666 0.500078 0.999996 0.500078C0.999996 0.500078 0.833296 0.666748 0.833296 0.833408C0.833296 1.00008 0.666595 1.00008 0.666595 1.16675C0.666595 1.33341 0.666595 1.33341 0.666595 1.50008C0.666595 1.66675 0.666595 1.66675 0.666595 1.83341L3.6666 59.5001C3.6666 59.6668 3.6666 59.6668 3.6666 59.8334C3.6666 60.0001 3.6666 60.0001 3.6666 60.1668C3.6666 60.3334 3.8333 60.3334 3.8333 60.5001L4 60.6668C4.1666 60.8334 4.1666 60.8334 4.3333 60.8334V66.3334C4.3333 67.3334 5 68.0001 6 68.0001H14.5C15.5 68.0001 16.1666 67.3334 16.1666 66.3334V60.8334C16.3333 60.8334 16.3333 60.6668 16.5 60.6668L16.6666 60.5001C16.6666 60.3334 16.8333 60.3334 16.8333 60.1668C16.8333 60.1668 16.8333 60.0001 17 60.0001V59.8334L23.1666 27.6668H24.3333L30.5 59.8334C30.5 60.0001 30.6666 60.1668 30.6666 60.3334C30.6666 60.3334 30.6666 60.3334 30.6666 60.5001C30.6666 60.6668 30.8333 60.6668 31 60.8334C31 60.8334 31.1666 60.8334 31.1666 61.0001V66.5001C31.1666 67.5001 31.8333 68.1668 32.8333 68.1668H41.3333C42.3333 68.1668 43 67.5001 43 66.5001V61.0001C43.1666 61.0001 43.1666 60.8334 43.3333 60.8334L43.5 60.6668C43.5 60.5001 43.6666 60.5001 43.6666 60.3334C43.6666 60.1668 43.6666 60.1668 43.6666 60.0001C43.6666 59.8334 43.6666 59.8334 43.6666 59.6668L47.3333 1.83341ZM13 64.8334H7.8333V61.1668H13V64.8334ZM40.1666 64.8334H35V61.1668H40.1666V64.8334ZM41 57.8334H33.8333L27.6666 25.6668V25.5001C27.6666 25.3334 27.6666 25.3334 27.5 25.1668C27.5 25.0001 27.3333 25.0001 27.3333 24.8334C27.3333 24.6668 27.1666 24.6668 27.1666 24.6668C27 24.6668 27 24.5001 26.8333 24.5001C26.6666 24.5001 26.6666 24.3334 26.5 24.3334C26.3333 24.3334 26.3333 24.3334 26.1666 24.3334H26H22.1666H22C21.8333 24.3334 21.8333 24.3334 21.6666 24.3334C21.5 24.3334 21.5 24.3334 21.3333 24.5001C21.1666 24.5001 21.1666 24.6668 21 24.6668L20.8333 24.8334C20.8333 24.8334 20.6666 25.0001 20.6666 25.1668C20.6666 25.3334 20.5 25.3334 20.5 25.5001V25.6668L14.3333 57.8334H7.1666L4.6666 12.5001H43.6666L41 57.8334ZM43.6666 9.16679H4.3333L4 3.50009H44L43.6666 9.16679Z" fill="url(#paint0_radial)"/>
<defs>
<radialGradient id="paint0_radial" cx="0" cy="0" r="1" gradientUnits="userSpaceOnUse" gradientTransform="translate(24 0.166748) rotate(90) scale(68 46.6667)">
<stop stop-color="#EB9038"/>
<stop offset="0.515625" stop-color="#F3C3CF"/>
<stop offset="1" stop-color="#8DC4F3"/>
</radialGradient>
</defs>
</svg>
