<svg width="60" height="58" viewBox="0 0 60 58" fill="none" xmlns="http://www.w3.org/2000/svg">
<path d="M54.8346 36.167V22.667C54.8346 10.667 45.0013 0.833008 33.1679 0.833008H27.0013C15.0013 0.833008 5.1679 10.667 5.1679 22.667V36.167C2.5013 37.5 0.834602 40.333 0.834602 43.5V48.833C0.834602 53.5 4.5013 57.167 9.1679 57.167H51.0013C55.6679 57.167 59.3346 53.5 59.3346 48.833V43.5C59.1679 40.333 57.5013 37.5 54.8346 36.167ZM8.5013 35.167V22.667C8.5013 12.5 16.8346 4.16699 27.0013 4.16699H33.1679C43.3346 4.16699 51.6679 12.5 51.6679 22.667V35.167H51.0013H9.1679H8.5013ZM55.8346 48.833C55.8346 51.667 53.6679 53.833 50.8346 53.833H9.1679C6.3346 53.833 4.1679 51.667 4.1679 48.833V43.5C4.1679 40.667 6.3346 38.5 9.1679 38.5H51.0013C53.8346 38.5 56.0013 40.667 56.0013 43.5V48.833H55.8346Z" fill="url(#paint0_radial)"/>
<defs>
<radialGradient id="paint0_radial" cx="0" cy="0" r="1" gradientUnits="userSpaceOnUse" gradientTransform="translate(30.0846 0.833008) rotate(90) scale(56.3333 58.5)">
<stop stop-color="#EB9038"/>
<stop offset="0.515625" stop-color="#F3C3CF"/>
<stop offset="1" stop-color="#8DC4F3"/>
</radialGradient>
</defs>
</svg>
