<svg width="60" height="56" viewBox="0 0 60 56" fill="none" xmlns="http://www.w3.org/2000/svg">
<path d="M52.5005 0.166748H26.0004C22.0004 0.166748 18.6671 3.50005 18.6671 7.50005V8.16675H16.6671C15.0005 5.83335 12.3338 4.50005 9.33381 4.50005C4.16711 4.50005 0.167114 8.66675 0.167114 13.6667C0.167114 18.6667 4.33381 22.8333 9.33381 22.8333C12.3338 22.8333 15.0005 21.3333 16.6671 19.1667H18.6671V48.6667C18.6671 52.6667 22.0004 56 26.0004 56H52.5005C56.5005 56 59.8338 52.6667 59.8338 48.6667V7.50005C59.8338 3.50005 56.5005 0.166748 52.5005 0.166748ZM14.1671 17C13.1671 18.5 11.3338 19.5 9.33381 19.5C6.16711 19.5 3.50041 16.8333 3.50041 13.6667C3.50041 10.5 6.16711 7.83335 9.33381 7.83335C11.3338 7.83335 13.0005 8.83335 14.1671 10.3333V17ZM18.1671 15.8333C18.3338 15.1667 18.5004 14.5 18.5004 13.6667C18.5004 13 18.3338 12.1667 18.1671 11.5H21.5005L26.3338 12.8333V14.5L21.5005 15.8333H18.1671ZM56.5005 48.5C56.5005 50.6667 54.6671 52.5 52.5005 52.5H26.0004C23.8338 52.5 22.0005 50.6667 22.0005 48.5V19.1667H22.1671L28.3338 17.5C29.0005 17.3333 29.5005 16.6667 29.5005 15.8333V11.6667C29.5005 10.8333 29.0005 10.3333 28.3338 10L22.1671 8.33335H22.0005V7.66675C22.0005 5.50005 23.8338 3.66675 26.0004 3.66675H52.5005C54.6671 3.66675 56.5005 5.50005 56.5005 7.66675V48.5Z" fill="url(#paint0_radial)"/>
<defs>
<radialGradient id="paint0_radial" cx="0" cy="0" r="1" gradientUnits="userSpaceOnUse" gradientTransform="translate(30.0005 0.166748) rotate(90) scale(55.8333 59.6667)">
<stop stop-color="#EB9038"/>
<stop offset="0.515625" stop-color="#F3C3CF"/>
<stop offset="1" stop-color="#8DC4F3"/>
</radialGradient>
</defs>
</svg>
