<svg width="69" height="74" viewBox="0 0 69 74" fill="none" xmlns="http://www.w3.org/2000/svg">
<path d="M66.167 20.167H50.167V16.5C50.167 7.5 42.833 0.333008 34 0.333008C25.167 0.333008 17.833 7.667 17.833 16.5V20.167H1.83298C0.832977 20.167 0.166992 20.833 0.166992 21.833V61.5C0.166992 61.667 0.166977 62 0.332977 62.167C0.499977 62.333 0.499992 62.5 0.666992 62.667L10.667 72.667C10.833 72.833 11 73 11.167 73C11.333 73.167 11.667 73.167 11.833 73.167H34H56.167C56.333 73.167 56.667 73.167 56.833 73C57 73 57.167 72.833 57.333 72.667C57.333 72.667 57.333 72.667 57.5 72.667L67.667 62.667C67.833 62.5 68 62.333 68 62.167C68.167 62 68.167 61.667 68.167 61.5V21.833C67.833 20.833 67.167 20.167 66.167 20.167ZM21.167 16.5C21.167 9.333 27 3.66699 34 3.66699C41 3.66699 46.833 9.5 46.833 16.5V20.167H21.167V16.5ZM64.5 60.833L55.333 69.833H34H33.833H12.5L3.49998 60.833V23.5H17.833V29.333C17.833 30.333 18.5 31 19.5 31C20.5 31 21.167 30.333 21.167 29.333V23.5H47V29.333C47 30.333 47.667 31 48.667 31C49.667 31 50.333 30.333 50.333 29.333V23.5H64.667V60.833H64.5Z" fill="url(#paint0_radial)"/>
<defs>
<radialGradient id="paint0_radial" cx="0" cy="0" r="1" gradientUnits="userSpaceOnUse" gradientTransform="translate(34.167 0.333008) rotate(90) scale(72.8333 68)">
<stop stop-color="#EB9038"/>
<stop offset="0.515625" stop-color="#F3C3CF"/>
<stop offset="1" stop-color="#8DC4F3"/>
</radialGradient>
</defs>
</svg>
