<svg width="60" height="57" viewBox="0 0 60 57" fill="none" xmlns="http://www.w3.org/2000/svg">
<path d="M47.168 12.167V5.83298C47.168 1.33298 32.501 0.666992 23.834 0.666992C15.168 0.666992 0.333984 1.49998 0.333984 5.83298V51.5C0.333984 56 15.001 56.667 23.668 56.667C32.334 56.667 47.001 56 47.001 51.5V45.167C53.834 44.333 59.168 38.333 59.168 31.167V26.333C59.334 19 54.001 13.167 47.168 12.167ZM43.834 51C42.334 51.833 35.501 53.333 23.834 53.333C12.168 53.333 5.33398 52 3.83398 51V9.99998C8.66798 11.833 17.668 12.167 23.834 12.167C30.001 12.167 39.001 11.833 43.834 9.99998V51ZM43.834 6.33298C42.334 7.16698 35.501 8.66699 23.834 8.66699C12.168 8.66699 5.33398 7.33298 3.83398 6.33298C5.33398 5.49998 12.168 3.99998 23.834 3.99998C35.501 3.99998 42.334 5.49998 43.834 6.33298ZM56.001 31.167C56.001 36.5 52.168 41 47.168 41.833V15.667C52.168 16.5 56.001 21 56.001 26.333V31.167Z" fill="url(#paint0_radial)"/>
<defs>
<radialGradient id="paint0_radial" cx="0" cy="0" r="1" gradientUnits="userSpaceOnUse" gradientTransform="translate(29.753 0.666992) rotate(90) scale(56 58.8371)">
<stop stop-color="#EB9038"/>
<stop offset="0.515625" stop-color="#F3C3CF"/>
<stop offset="1" stop-color="#8DC4F3"/>
</radialGradient>
</defs>
</svg>
