<svg width="77" height="49" viewBox="0 0 77 49" fill="none" xmlns="http://www.w3.org/2000/svg">
<path d="M75.332 33.6668C75.498 33.1668 79.498 20.3328 73.165 10.4998C69.332 4.66677 62.665 1.16676 53.165 0.332762C52.665 0.332762 39.165 -1.16724 29.332 6.83276C23.832 11.3328 20.665 17.6668 19.665 25.9998L2.165 34.1668C1.998 34.1668 1.99801 34.3328 1.83201 34.3328L1.665 34.4998L1.49801 34.6668C1.49801 34.8328 1.33201 34.8328 1.33201 34.9998C0.498005 37.6668 0.831998 39.6668 2.165 40.6668C2.832 41.1668 3.665 41.4998 4.665 41.4998C7.665 41.4998 11.665 39.3328 14.165 37.9998C17.332 39.4998 20.998 41.6668 25.332 44.4998L28.332 46.3328C30.665 47.8328 33.332 48.3328 35.998 48.3328C46.498 48.3328 57.832 39.1668 60.332 36.8328C61.665 36.9998 62.832 36.9998 63.832 36.9998C70.665 36.9998 74.165 34.4998 74.665 34.1668C74.832 33.9998 74.832 33.9998 74.998 33.8328C74.998 33.8328 74.998 33.6668 75.165 33.6668C75.165 33.8328 75.332 33.8328 75.332 33.6668ZM4.165 38.3328C4.165 38.3328 3.998 37.9998 4.165 36.9998C5.998 36.3328 7.83201 36.3328 9.83201 36.6668C6.99801 37.9998 4.665 38.6668 4.165 38.3328ZM29.998 43.6668L26.998 41.8328C22.332 38.8328 18.165 36.3328 14.498 34.8328H14.332C13.332 34.3328 12.165 33.9998 11.165 33.8328L21.332 28.9998C27.998 29.3328 37.165 31.6668 45.998 33.9998C49.498 34.8328 52.832 35.6668 55.832 36.4998C50.665 40.4998 38.165 48.6668 29.998 43.6668ZM56.998 33.1668C53.832 32.4998 50.498 31.4998 46.998 30.6668C38.498 28.4998 29.832 26.3328 22.998 25.6668C23.998 18.6668 26.832 13.1668 31.332 9.49977C40.165 2.33277 52.498 3.66676 52.665 3.83276C60.998 4.66676 66.832 7.49977 70.165 12.4998C74.998 19.8328 72.832 29.8328 72.165 32.3328C70.832 32.8328 65.832 35.1668 56.998 33.1668Z" fill="url(#paint0_radial)"/>
<defs>
<radialGradient id="paint0_radial" cx="0" cy="0" r="1" gradientUnits="userSpaceOnUse" gradientTransform="translate(38.804 0.221762) rotate(90) scale(48.1116 75.8529)">
<stop stop-color="#EB9038"/>
<stop offset="0.515625" stop-color="#F3C3CF"/>
<stop offset="1" stop-color="#8DC4F3"/>
</radialGradient>
</defs>
</svg>
