<svg width="72" height="72" viewBox="0 0 72 72" fill="none" xmlns="http://www.w3.org/2000/svg">
<path d="M71.832 25C71.832 24.167 71.165 23.5 70.499 23.333L48.332 12.167V7C48.165 3 42.832 0 35.999 0C29.165 0 23.832 3 23.832 7V12.167L1.66499 23.5C0.831993 23.667 0.332001 24.333 0.332001 25.167V69.833C0.332001 69.833 0.332001 69.833 0.332001 70C0.332001 70 0.332001 70 0.332001 70.167C0.332001 71.167 0.998993 71.833 1.99899 71.833H12.665C13.665 71.833 14.332 71.167 14.332 70.167V62.667C15.665 61.667 23.165 60 36.165 60C49.165 60 56.499 61.667 57.999 62.667V70.167C57.999 71.167 58.665 71.833 59.665 71.833H70.332C71.332 71.833 71.999 71.167 71.999 70.167C71.999 70.167 71.999 70.167 71.999 70C71.999 70 71.999 70 71.999 69.833V25H71.832ZM26.999 7C26.999 5.5 30.499 3.33301 35.999 3.33301C41.499 3.33301 44.999 5.5 44.999 7V12.333L35.999 19L26.999 12.333V7ZM68.499 68.167H61.165V62C61.165 62 61.165 62 61.165 61.833V33C61.165 32 60.499 31.333 59.499 31.333C58.499 31.333 57.832 32 57.832 33V58.833C56.499 58.333 54.999 58 52.999 57.667C48.499 56.833 42.499 56.5 36.165 56.5C29.832 56.5 23.832 57 19.332 57.667C17.332 58 15.665 58.333 14.499 58.833V33C14.499 32 13.832 31.333 12.832 31.333C11.832 31.333 11.165 32 11.165 33V62C11.165 62 11.165 62 11.165 62.167V68.333H3.49899V26.167L25.165 15.167L34.832 22.5C34.832 22.5 34.999 22.5 34.999 22.667C34.999 22.667 35.165 22.667 35.165 22.833C35.332 23 35.665 23 35.832 23C35.999 23 36.332 23 36.499 22.833C36.499 22.833 36.665 22.833 36.665 22.667C36.665 22.667 36.832 22.667 36.832 22.5L46.499 15.167L68.165 26.167V68.167H68.499Z" fill="url(#paint0_radial)"/>
<defs>
<radialGradient id="paint0_radial" cx="0" cy="0" r="1" gradientUnits="userSpaceOnUse" gradientTransform="translate(36.165) rotate(90) scale(71.8333 71.6667)">
<stop stop-color="#EB9038"/>
<stop offset="0.515625" stop-color="#F3C3CF"/>
<stop offset="1" stop-color="#8DC4F3"/>
</radialGradient>
</defs>
</svg>
