<svg width="22" height="72" viewBox="0 0 22 72" fill="none" xmlns="http://www.w3.org/2000/svg">
<path d="M21.1662 62.667L17.3329 18V10.833L18.1662 4.33299C18.3329 3.33299 17.9995 2.50001 17.3329 1.66701C16.6662 0.833007 15.8329 0.5 14.8329 0.5H7.16619C6.16619 0.5 5.33289 0.833007 4.66619 1.66701C3.99959 2.50001 3.66619 3.33299 3.83289 4.33299L4.66619 10.833V12.667V17.833L0.832886 62.833V66.5C0.832886 69.333 2.99959 71.5 5.83289 71.5H16.1662C18.9996 71.5 21.1662 69.333 21.1662 66.5V62.667ZM14.8329 3.83299L14.1662 9.5C13.1662 9.167 12.1662 9.16701 10.9996 9.16701C9.99959 9.16701 8.83289 9.333 7.83289 9.5L7.16619 3.83299H14.8329ZM7.99959 18V13C8.33289 12.833 9.33289 12.5 10.9996 12.5C12.6662 12.5 13.6662 12.833 13.9995 13V18.167L17.6662 59.833C16.8329 60.167 14.4996 60.667 11.1662 60.667C7.83289 60.667 5.49959 60.167 4.66619 59.833L7.99959 18ZM17.8329 66.5C17.8329 67.5 17.1662 68.167 16.1662 68.167H5.83289C4.83289 68.167 4.16619 67.5 4.16619 66.5V63.167C6.33289 63.833 8.99959 64 10.9996 64C12.9996 64 15.6662 63.833 17.8329 63.167V66.5Z" fill="url(#paint0_radial)"/>
<defs>
<radialGradient id="paint0_radial" cx="0" cy="0" r="1" gradientUnits="userSpaceOnUse" gradientTransform="translate(10.9996 0.5) rotate(90) scale(71 20.3334)">
<stop stop-color="#EB9038"/>
<stop offset="0.515625" stop-color="#F3C3CF"/>
<stop offset="1" stop-color="#8DC4F3"/>
</radialGradient>
</defs>
</svg>
