<svg width="72" height="80" viewBox="0 0 72 80" fill="none" xmlns="http://www.w3.org/2000/svg">
<path d="M71.6661 25C71.6661 24.167 70.9994 23.5 70.3328 23.333L47.9994 12.167V7C47.9994 3 42.6661 0 35.8328 0C28.9994 0 23.6661 3 23.6661 7V12.167L1.33272 23.5C0.66606 23.667 -0.000610352 24.167 -0.000610352 25V69.667C-0.000610352 69.667 -0.000610352 69.667 -0.000610352 69.833C-0.000610352 69.833 -0.000610352 69.833 -0.000610352 70C-0.000610352 71 0.666059 71.667 1.66606 71.667H10.6661V78.333C10.6661 79.333 11.3328 80 12.3328 80C12.4994 80 12.6661 80 12.6661 80H35.6661H58.6661C58.8328 80 58.9994 80 58.9994 80C59.9994 80 60.6661 79.333 60.6661 78.333V71.5H69.9994C70.9994 71.5 71.6661 70.833 71.6661 69.833C71.6661 69.833 71.6661 69.833 71.6661 69.667C71.6661 69.667 71.6661 69.667 71.6661 69.5V25ZM35.8328 3.33301C41.3328 3.33301 44.8328 5.5 44.8328 7V12.333L35.8328 19L26.8328 12.333V7C26.8328 5.5 30.3328 3.33301 35.8328 3.33301ZM59.3328 31.333C58.3328 31.333 57.6661 32 57.6661 33V76.667H35.8328H13.9994V33C13.9994 32 13.3328 31.333 12.3328 31.333C11.3328 31.333 10.6661 32 10.6661 33V68.333H3.33272V26.167L24.9994 15.167L34.6661 22.5C34.6661 22.5 34.8328 22.5 34.8328 22.667C34.8328 22.667 34.9994 22.667 34.9994 22.833C35.1661 23 35.3328 23 35.6661 23C35.8328 23 36.1661 23 36.3328 22.833C36.3328 22.833 36.4994 22.833 36.4994 22.667C36.4994 22.667 36.6661 22.667 36.6661 22.5L46.3328 15.167L67.9994 26.167V68.167H60.6661V33C60.9994 32 60.1661 31.333 59.3328 31.333Z" fill="url(#paint0_radial)"/>
<defs>
<radialGradient id="paint0_radial" cx="0" cy="0" r="1" gradientUnits="userSpaceOnUse" gradientTransform="translate(35.8328) rotate(90) scale(80 71.6667)">
<stop stop-color="#EB9038"/>
<stop offset="0.515625" stop-color="#F3C3CF"/>
<stop offset="1" stop-color="#8DC4F3"/>
</radialGradient>
</defs>
</svg>
